<?xml version="1.0" standalone="no"?>
<!DOCTYPE svg PUBLIC "-//W3C//DTD SVG 20010904//EN"
 "http://www.w3.org/TR/2001/REC-SVG-20010904/DTD/svg10.dtd">
<svg version="1.0" xmlns="http://www.w3.org/2000/svg"
 width="160.000000pt" height="160.000000pt" viewBox="0 0 160.000000 160.000000"
 preserveAspectRatio="xMidYMid meet">
<metadata>
Created by potrace 1.10, written by Peter Selinger 2001-2011
</metadata>
<g transform="translate(0.000000,160.000000) scale(0.100000,-0.100000)"
fill="#000000" stroke="none">
<path d="M479 1194 c-16 -19 -15 -87 3 -147 6 -23 11 -45 10 -49 -1 -5 3 -8 8
-8 5 0 9 -3 8 -7 -3 -14 15 -45 43 -76 16 -17 29 -37 29 -45 0 -7 5 -10 10 -7
6 3 10 1 10 -6 0 -6 8 -18 18 -26 10 -9 11 -12 2 -7 -9 4 -12 3 -7 -2 5 -5 14
-9 20 -9 27 0 14 -33 -33 -85 -27 -30 -57 -70 -65 -87 -9 -18 -19 -33 -23 -33
-4 0 -8 -8 -9 -18 -1 -9 -8 -37 -17 -62 -9 -25 -16 -66 -16 -92 0 -38 4 -50
23 -62 41 -27 144 -7 153 29 3 13 15 26 27 29 39 10 259 7 252 -4 -3 -6 0 -10
7 -10 16 0 40 -48 32 -64 -3 -6 1 -3 9 6 8 10 17 15 21 11 3 -3 26 -7 51 -8
69 -4 90 32 73 127 -10 57 -65 178 -81 178 -6 0 -8 3 -4 6 3 3 -16 29 -43 57
-40 42 -47 54 -37 66 10 12 9 13 -3 6 -8 -5 5 10 29 32 44 42 60 65 83 116 7
15 16 27 20 27 4 0 8 9 8 21 0 13 4 18 12 13 6 -4 8 -3 4 4 -3 6 -3 13 2 16 4
2 9 40 11 84 3 97 -3 104 -91 100 -62 -3 -63 -4 -81 -40 l-19 -38 -127 0 -128
0 -24 38 c-23 36 -26 37 -90 40 -52 2 -69 -1 -80 -14z m153 -62 c5 -74 35
-134 105 -211 l56 -62 41 40 c32 31 50 40 81 43 35 3 40 6 43 31 3 20 -1 27
-13 27 -11 0 -15 -5 -12 -14 3 -9 -3 -17 -16 -21 -12 -4 -29 -9 -37 -12 -8 -2
-27 -7 -42 -10 -16 -3 -28 -12 -28 -20 0 -8 -5 -11 -10 -8 -6 4 -8 10 -6 14 3
4 -7 8 -22 9 -14 1 -39 16 -55 32 l-29 30 116 0 115 0 16 30 c11 21 23 30 39
30 14 0 26 6 29 13 6 18 -11 47 -29 47 -11 0 -14 6 -10 16 3 9 6 24 6 35 0 17
8 19 66 19 l67 0 -6 -66 c-7 -91 -59 -194 -140 -279 l-62 -64 62 -62 c82 -82
133 -182 140 -273 l6 -66 -67 0 c-57 0 -66 2 -66 18 0 41 -31 133 -59 173 -16
24 -49 63 -73 86 l-43 43 -43 -40 c-31 -28 -54 -40 -80 -42 -32 -3 -37 -7 -37
-27 0 -13 6 -26 13 -29 9 -3 12 3 10 14 -2 12 2 18 11 16 7 -1 24 4 37 13 15
10 46 15 86 14 57 0 65 -3 86 -30 l24 -29 -116 0 -115 0 -16 -29 c-8 -17 -25
-31 -37 -33 -17 -2 -23 -10 -23 -27 0 -13 6 -26 13 -28 7 -3 12 4 12 15 0 37
27 47 141 50 127 5 181 -2 173 -22 -3 -8 -1 -17 5 -21 32 -19 -2 -25 -149 -25
l-160 0 0 -30 0 -30 -71 0 -72 0 7 63 c9 91 61 192 139 272 l64 66 -63 65
c-81 85 -132 186 -141 278 l-6 66 70 0 71 0 4 -58z m336 -34 c6 -33 -48 -48
-176 -48 -125 0 -134 3 -145 48 l-5 22 161 -2 c143 -3 162 -5 165 -20z m-71
-72 c0 -9 -93 -12 -202 -6 -5 0 -3 5 5 10 21 14 197 11 197 -4z m-7 -486 c27
-17 3 -21 -106 -18 -93 3 -105 5 -84 15 30 14 169 17 190 3z"/>
</g>
</svg>
